<?xml version="1.0" encoding="utf-8"?>
<!DOCTYPE svg PUBLIC "-//W3C//DTD SVG 1.1//EN" "http://www.w3.org/Graphics/SVG/1.1/DTD/svg11.dtd">
<svg xmlns="http://www.w3.org/2000/svg" xmlns:xlink="http://www.w3.org/1999/xlink" version="1.1" baseProfile="full" width="106.072" height="108.426" viewBox="0 0 106.07 108.43" enable-background="new 0 0 106.07 108.43" xml:space="preserve">
	<path fill="none" stroke-width="12" stroke-linejoin="round" stroke="#FFFFFF" stroke-opacity="1" d="M 12.4408,23.191L 12.7539,34.9847L 13.842,45.205L 14.8376,52.7273L 16.1282,57.5578L 20.5531,69.9475L 24.5355,77.6173L 29.6241,85.3609L 34.1965,90.5233L 39.2114,94.9481L 43.3413,98.0456L 48.6512,100.996L 51.4536,102.323L 55.731,100.406L 59.2709,98.3406L 64.2858,94.6532L 69.7432,89.7858L 74.6106,84.3285L 78.1505,77.9861L 80.0679,75.1837L 82.8704,68.6937L 85.5253,61.909L 87.1477,55.8616L 88.0327,51.8792L 88.7702,48.0443L 89.6552,43.4719L 89.9502,38.4571L 90.3927,34.1796L 90.6877,28.5747L 90.6877,24.4448L 90.6877,23.4124L 82.5753,20.4624L 72.1031,17.66L 66.9408,16.6275L 62.3684,15.89L 57.6485,15.1526L 52.3386,14.8576L 49.8311,14.5626L 42.1613,15.3001L 27.0061,18.545L 12.4408,23.191 Z "/>
	<path fill="none" stroke-width="8" stroke-linejoin="round" stroke="#FFC800" stroke-opacity="1" d="M 12.3301,23.1104L 12.6432,34.9041L 13.7313,45.1244L 14.7269,52.6468L 16.0175,57.4772L 20.4424,69.867L 24.4248,77.5368L 29.5134,85.2804L 34.0858,90.4427L 39.1007,94.8676L 43.2306,97.965L 48.5405,100.915L 51.3429,102.242L 55.6203,100.325L 59.1602,98.26L 64.1751,94.5726L 69.6325,89.7052L 74.4999,84.2479L 78.0398,77.9055L 79.9572,75.1031L 82.7597,68.6132L 85.4146,61.8284L 87.0371,55.781L 87.922,51.7986L 88.6595,47.9637L 89.5445,43.3913L 89.8395,38.3764L 90.282,34.099L 90.577,28.4942L 90.577,24.3643L 90.577,23.3318L 82.4647,20.3819L 71.9924,17.5794L 66.83,16.547L 62.2577,15.8094L 57.5378,15.0719L 52.2279,14.7769L 49.7205,14.482L 42.0506,15.2195L 26.8954,18.4644L 12.3301,23.1104 Z "/>
	<path fill="none" stroke-width="5" stroke-linejoin="round" stroke="#FFFFFF" stroke-opacity="1" d="M 43.9878,99.3999L 51.9858,102.497L 71.5598,88.559L 78.295,73.7355L 83.9936,65.8521L 84.6092,62.0095L 86.2514,55.758L 82.1695,51.8882L 78.4957,50.3402L 76.0465,46.4705L 73.3422,42.8426L 72.4237,39.65L 70.7399,36.7476L 69.3623,34.2807L 68.2907,33.2648L 69.3623,32.1039L 70.2807,29.637L 69.8214,26.5894L 70.1276,24.4127L 70.4337,20.6397L 70.5868,18.1727L 70.4337,13.8192L 70.1276,11.3522L 69.5154,8.88527L 68.75,6.41823L 67.9846,5.1122L 66.76,3.95125L 64.1577,4.24148L 62.9331,5.54751L 60.9431,8.01449L 59.7186,10.7717L 57.7286,13.8192L 56.9632,15.4154L 55.7386,16.8666L 54.6671,16.8666L 53.4425,16.7215L 52.2179,14.2545L 50.8402,11.062L 49.4626,8.44985L 48.8503,6.99868L 48.8503,4.09633L 48.8503,2.93545L 47.7788,2.50002L 45.9419,7.57912L 44.7173,11.4973L 43.7988,14.835L 43.4927,16.7215L 43.9519,19.0434L 43.0335,20.2044L 41.0435,20.7848L 38.4413,22.3811L 36.2982,23.6872L 34.6144,24.9932L 34.3082,26.2992L 34.4613,27.6053L 33.2367,28.1858L 29.4099,28.476L 25.4299,28.7662L 23.44,29.2016L 21.2969,30.0723L 18.8477,31.2332L 17.9293,32.6844L 18.0824,33.9904L 19.4601,34.716L 19.1539,36.8927L 20.0724,37.9086C 20.0724,37.9086 20.2254,38.1988 20.9908,38.9244C 21.7561,39.65 22.6746,40.3756 22.6746,40.3756L 24.3584,40.5207L 26.9607,40.6658L 28.6445,40.9561L 30.0222,41.8267L 33.0836,41.9718L 32.3183,43.1328L 31.5529,44.7291L 30.4814,45.89L 28.7976,46.7608L 27.2668,47.3411L 26.0422,47.0509L 24.6646,46.7608L 23.44,48.0667L 22.5215,49.5179L 22.6746,51.2594L 23.44,52.13L 24.6646,52.13L 26.0422,51.8397L 26.0422,53.0008L 26.9607,53.7263L 28.6445,54.4519L 31.0937,54.4519L 33.3898,54.4519L 34.9205,53.8714L 37.3697,53.0008L 38.5943,52.8556L 38.7474,54.597L 39.2066,55.9031L 39.8189,57.4994L 41.0435,59.0956L 41.6558,62.2882L 41.3496,64.1747L 41.5027,65.1905L 42.2681,69.9794L 41.6558,75.2036L 42.2681,79.8473L 42.8804,84.7813L 43.7988,87.3934L 43.7988,91.7469L 42.9825,97.1646L 43.9878,99.3999 Z "/>
	<path fill="#55555A" fill-opacity="1" stroke-width="0.2" stroke-linejoin="round" d="M 43.8983,99.4025L 51.8963,102.5L 71.4703,88.5616L 78.2054,73.7381L 83.9041,65.8548L 84.5196,62.0121L 86.1619,55.7606L 82.0799,51.8908L 78.4061,50.3429L 75.9569,46.473L 73.2527,42.8451L 72.3342,39.6526L 70.6504,36.7503L 69.2727,34.2833L 68.2012,33.2674L 69.2727,32.1065L 70.1912,29.6395L 69.7319,26.5921L 70.0381,24.4154L 70.3442,20.6422L 70.4973,18.1753L 70.3442,13.8218L 70.0381,11.3548L 69.4258,8.88784L 68.6604,6.4208L 67.8951,5.11483L 66.6704,3.95388L 64.0682,4.24404L 62.8436,5.55013L 60.8536,8.01711L 59.629,10.7743L 57.6391,13.8218L 56.8737,15.4181L 55.6491,16.8692L 54.5776,16.8692L 53.353,16.7241L 52.1284,14.2572L 50.7507,11.0646L 49.373,8.45247L 48.7607,7.0013L 48.7607,4.09896L 48.7607,2.93807L 47.6892,2.50258L 45.8524,7.58169L 44.6278,11.4999L 43.7093,14.8377L 43.4032,16.7241L 43.8624,19.046L 42.9439,20.2069L 40.954,20.7874L 38.3517,22.3837L 36.2086,23.6898L 34.5249,24.9957L 34.2187,26.3018L 34.3718,27.6079L 33.1472,28.1884L 29.3203,28.4786L 25.3404,28.7688L 23.3504,29.2042L 21.2074,30.0749L 18.7582,31.2359L 17.8398,32.687L 17.9928,33.993L 19.3705,34.7186L 19.0643,36.8953L 19.9828,37.9112C 19.9828,37.9112 20.1359,38.2013 20.9012,38.927C 21.6666,39.6526 22.5851,40.3782 22.5851,40.3782L 24.2689,40.5233L 26.8711,40.6684L 28.555,40.9586L 29.9326,41.8294L 32.9941,41.9744L 32.2287,43.1354L 31.4634,44.7317L 30.3918,45.8926L 28.708,46.7633L 27.1773,47.3438L 25.9527,47.0536L 24.575,46.7633L 23.3504,48.0694L 22.432,49.5205L 22.5851,51.262L 23.3504,52.1327L 24.575,52.1327L 25.9527,51.8424L 25.9527,53.0033L 26.8711,53.7289L 28.555,54.4545L 31.0042,54.4545L 33.3003,54.4545L 34.831,53.874L 37.2802,53.0033L 38.5048,52.8582L 38.6578,54.5996L 39.1171,55.9057L 39.7294,57.502L 40.954,59.0982L 41.5663,62.2909L 41.2601,64.1773L 41.4132,65.1931L 42.1786,69.982L 41.5663,75.2062L 42.1786,79.8499L 42.7909,84.784L 43.7093,87.396L 43.7093,91.7495L 42.8929,97.1673L 43.8983,99.4025 Z "/>
	<path fill="none" stroke-width="12" stroke-linejoin="round" stroke="#FFFFFF" stroke-opacity="1" d="M 29.2976,85.4637L 33.87,90.6261L 38.8849,95.0509L 43.0147,98.1483L 48.3246,101.098L 51.127,102.426L 55.4044,100.508L 58.9444,98.4434L 63.9593,94.7559L 69.4166,89.8886L 74.284,84.4312L 77.8239,78.0889L 79.7414,75.2865L 82.5438,68.7965L 85.1987,62.0117L 86.8212,55.9644L 87.7062,51.982"/>
	<path fill="none" stroke-width="8" stroke-linejoin="round" stroke="#FFC800" stroke-opacity="1" d="M 29.5125,85.2974L 34.0848,90.4599L 39.0997,94.8848L 43.2296,97.9822L 48.5395,100.932L 51.3419,102.26L 55.6194,100.342L 59.1593,98.2772L 64.1742,94.5897L 69.6315,89.7223L 74.4989,84.265L 78.0388,77.9226L 79.9563,75.1202L 82.7587,68.6304L 85.4137,61.8455L 87.0361,55.7982L 87.9211,51.8158"/>
	<path fill="#058AE7" fill-opacity="1" stroke-width="1.5" stroke-linejoin="round" stroke="#FFFFFF" stroke-opacity="1" d="M 21.3933,92.9374L 19.5983,77.7816L 0.75,81.0064L 7.93027,88.1006L 4.34012,97.452L 21.3933,92.9374 Z "/>
	<path fill="#058AE7" fill-opacity="1" stroke-width="1.5" stroke-linejoin="round" stroke="#FFFFFF" stroke-opacity="1" d="M 101.353,98.0706L 97.69,88.8782L 105.322,82.3123L 86.3947,77.7161L 83.3419,93.4744L 101.353,98.0706 Z "/>
	<path fill="#FFFFFF" fill-opacity="1" stroke-width="3" stroke-linejoin="round" stroke="#FFFFFF" stroke-opacity="1" d="M 12.476,74.784L 16.9856,90.3004L 21.5714,89.5348L 27.5732,88.5328L 33.7858,87.6644L 40.1203,86.8621L 44.1642,86.5675L 47.4728,86.4202L 50.9285,86.4202L 54.8253,86.4939L 59.3103,86.7149L 65.4864,87.1568L 72.626,87.9894L 78.6474,88.9245L 83.7463,90.0059L 88.7461,90.8897L 93.4517,74.9804L 88.5328,73.6278L 82.7689,72.0427L 78.868,71.1002L 74.6,70.3927L 69.6773,69.7007L 63.7475,69.088L 57.6211,68.8426L 51.8135,68.6099L 49.0425,68.4989L 42.9878,68.5958L 38.5027,68.8169L 33.2824,69.4061L 28.5033,70.2163L 24.4359,71.0855L 19.7538,72.3523L 15.2878,73.727L 12.6721,74.5875L 12.476,74.784 Z "/>
	<path fill="#0096FF" fill-opacity="1" stroke-width="0.2" stroke-linejoin="round" d="M 12.3991,74.709L 16.9086,90.2254L 21.4944,89.4598L 27.4962,88.4578L 33.7088,87.5894L 40.0433,86.7872L 44.0872,86.4925L 47.3958,86.3452L 50.8515,86.3452L 54.7483,86.4188L 59.2333,86.6398L 65.4094,87.0818L 72.549,87.9144L 78.5704,88.8494L 83.6693,89.9309L 88.6691,90.8148L 93.3747,74.9054L 88.4559,73.5528L 82.6919,71.9677L 78.791,71.0252L 74.523,70.3177L 69.6003,69.6258L 63.6705,69.0131L 57.5441,68.7676L 51.7365,68.5349L 48.9655,68.4239L 42.9108,68.5209L 38.4258,68.7418L 33.2054,69.3311L 28.4263,70.1413L 24.3589,71.0105L 19.6768,72.2772L 15.2108,73.6519L 12.5951,74.5126"/>
	<g>
		<path fill="#FFFFFF" fill-opacity="1" stroke-width="0.2" stroke-linejoin="round" d="M 27.136,81.5731C 27.1069,81.3988 27.0547,81.2494 26.9792,81.1245C 26.9037,80.9997 26.789,80.8929 26.6351,80.8043C 26.4812,80.7157 26.2815,80.6417 26.0362,80.5824C 25.7909,80.5231 25.4832,80.4713 25.1131,80.4273C 24.7249,80.3828 24.3696,80.318 24.0473,80.2327C 23.725,80.1473 23.4438,80.034 23.204,79.8927C 22.9641,79.7514 22.7689,79.5772 22.6183,79.3704C 22.4677,79.1634 22.3681,78.9142 22.3194,78.6227C 22.2708,78.3311 22.2865,78.0511 22.3667,77.7826C 22.4469,77.5141 22.583,77.2697 22.7749,77.0496C 22.9668,76.8294 23.2101,76.6417 23.5047,76.4867C 23.7993,76.3316 24.1384,76.2221 24.5219,76.158C 24.9428,76.0877 25.3282,76.0887 25.6782,76.161C 26.0282,76.2332 26.3327,76.355 26.5917,76.5264C 26.8507,76.6978 27.0614,76.9107 27.2238,77.1651C 27.3863,77.4197 27.4919,77.6926 27.5406,77.9842L 26.5493,78.1497C 26.5143,77.9403 26.4486,77.7522 26.352,77.5853C 26.2554,77.4184 26.1277,77.2812 25.969,77.1736C 25.8102,77.0661 25.6221,76.9936 25.4046,76.9561C 25.1871,76.9185 24.9381,76.9232 24.6575,76.9701C 24.3934,77.0142 24.169,77.0835 23.9843,77.178C 23.7995,77.2725 23.6528,77.3843 23.5443,77.5133C 23.4358,77.6424 23.3628,77.7855 23.3253,77.9428C 23.288,78.0999 23.2839,78.2662 23.3131,78.4416C 23.3393,78.5983 23.3967,78.7362 23.4854,78.8556C 23.574,78.9748 23.6976,79.0775 23.8562,79.1637C 24.0147,79.2498 24.2122,79.3208 24.4485,79.3765C 24.6848,79.4323 24.9646,79.4771 25.2879,79.511C 25.732,79.5597 26.1205,79.6311 26.4533,79.7254C 26.7861,79.8196 27.068,79.9424 27.2988,80.0936C 27.5296,80.2449 27.713,80.4271 27.8489,80.6405C 27.9847,80.8538 28.077,81.1062 28.1257,81.3978C 28.1765,81.7024 28.1609,81.9884 28.0788,82.2555C 27.9967,82.5227 27.8565,82.7627 27.6583,82.9754C 27.4601,83.1883 27.2085,83.3682 26.9036,83.5155C 26.5986,83.6627 26.2495,83.7691 25.856,83.8348C 25.627,83.8731 25.3941,83.89 25.1573,83.8856C 24.9206,83.8811 24.6896,83.8538 24.4644,83.8036C 24.2391,83.7533 24.0261,83.6798 23.8252,83.5833C 23.6244,83.4867 23.4433,83.3657 23.2822,83.2202C 23.121,83.0748 22.9851,82.9037 22.8746,82.7071C 22.764,82.5103 22.6879,82.287 22.6461,82.0372L 23.6375,81.8717C 23.6805,82.1292 23.7679,82.3411 23.8998,82.5072C 24.0318,82.6732 24.1924,82.8021 24.3818,82.8939C 24.5711,82.9856 24.7809,83.0413 25.0112,83.0609C 25.2415,83.0804 25.4782,83.0699 25.7215,83.0293C 26.2421,82.9424 26.6233,82.7694 26.865,82.5106C 27.1068,82.2516 27.1971,81.9391 27.136,81.5731 Z "/>
		<path fill="#FFFFFF" fill-opacity="1" stroke-width="0.2" stroke-linejoin="round" d="M 32.1162,81.4896L 33.396,74.9948L 34.4805,74.8433L 32.744,82.743L 31.8676,82.8656L 28.0381,75.7437L 29.116,75.5931L 32.1162,81.4896 Z "/>
		<path fill="#FFFFFF" fill-opacity="1" stroke-width="0.2" stroke-linejoin="round" d="M 41.9859,77.9934C 42.0573,78.5578 42.05,79.0723 41.9638,79.5368C 41.8776,80.0013 41.7234,80.4066 41.5012,80.7528C 41.2791,81.099 40.9925,81.3784 40.6414,81.5909C 40.2903,81.8033 39.8855,81.9386 39.4269,81.9967C 38.9827,82.053 38.5641,82.022 38.1711,81.9037C 37.7782,81.7855 37.4276,81.5868 37.1195,81.3078C 36.8115,81.0287 36.5551,80.6754 36.3503,80.2477C 36.1455,79.8201 36.0073,79.3241 35.9359,78.7597L 35.8756,78.2835C 35.8045,77.7224 35.8146,77.2076 35.9059,76.7391C 35.9972,76.2706 36.1556,75.8629 36.3811,75.5164C 36.6065,75.1698 36.8947,74.8891 37.2455,74.6744C 37.5963,74.4597 37.9938,74.3243 38.438,74.268C 38.8966,74.21 39.3233,74.2411 39.7182,74.3612C 40.1131,74.4815 40.4621,74.6814 40.7652,74.9611C 41.0683,75.2408 41.3197,75.5965 41.5194,76.0282C 41.7191,76.4598 41.8545,76.9561 41.9256,77.5172L 41.9859,77.9934 Z M 40.9372,77.6323C 40.8805,77.1848 40.7849,76.7946 40.6503,76.4616C 40.5157,76.1287 40.3457,75.8562 40.1403,75.6442C 39.9348,75.4322 39.6979,75.2819 39.4296,75.1933C 39.1613,75.1046 38.8668,75.0806 38.5461,75.1212C 38.2396,75.16 37.9684,75.2557 37.7323,75.4082C 37.4963,75.5607 37.3044,75.7654 37.1566,76.0221C 37.0088,76.2788 36.9084,76.5855 36.8556,76.9422C 36.8028,77.2989 36.8047,77.701 36.8614,78.1485L 36.923,78.6346C 36.9801,79.0855 37.0795,79.477 37.2212,79.809C 37.3629,80.141 37.5383,80.4137 37.7473,80.6269C 37.9563,80.8401 38.1941,80.9911 38.4607,81.08C 38.7273,81.1688 39.0139,81.1939 39.3203,81.1551C 39.6444,81.114 39.9244,81.0172 40.1605,80.8648C 40.3965,80.7122 40.5867,80.5069 40.731,80.2489C 40.8753,79.9911 40.9702,79.6842 41.0159,79.3284C 41.0616,78.9726 41.0559,78.5694 40.9987,78.1185L 40.9372,77.6323 Z M 36.6822,73.4303C 36.6625,73.2749 36.6934,73.1385 36.7749,73.0213C 36.8563,72.904 36.9896,72.8336 37.1748,72.8101C 37.3611,72.7866 37.5092,72.8213 37.6189,72.9144C 37.7287,73.0074 37.7935,73.1317 37.8131,73.2871C 37.8327,73.4414 37.8008,73.5765 37.7174,73.6923C 37.6342,73.8082 37.4993,73.8778 37.313,73.9015C 37.1278,73.9249 36.9813,73.8909 36.8734,73.7992C 36.7655,73.7076 36.7017,73.5846 36.6822,73.4303 Z M 38.9057,73.1588C 38.886,73.0033 38.9165,72.8662 38.9972,72.7474C 39.0779,72.6285 39.2114,72.5573 39.3977,72.5337C 39.584,72.5101 39.7321,72.5457 39.8421,72.6404C 39.9521,72.7351 40.017,72.8601 40.0367,73.0155C 40.0562,73.1699 40.0243,73.305 39.9409,73.4208C 39.8576,73.5366 39.7228,73.6063 39.5365,73.63C 39.3503,73.6536 39.2034,73.6195 39.0961,73.5279C 38.9887,73.4361 38.9252,73.3131 38.9057,73.1588 Z "/>
		<path fill="#FFFFFF" fill-opacity="1" stroke-width="0.2" stroke-linejoin="round" d="M 53.088,77.8653C 53.088,78.4342 53.0161,78.9436 52.8722,79.3936C 52.7284,79.8437 52.5244,80.2264 52.2606,80.542C 51.9967,80.8575 51.6772,81.0987 51.3022,81.2653C 50.9272,81.432 50.5086,81.5153 50.0464,81.5153C 49.5986,81.5153 49.1872,81.432 48.8122,81.2653C 48.4372,81.0987 48.1145,80.8575 47.8439,80.542C 47.5733,80.2264 47.3633,79.8437 47.2139,79.3936C 47.0645,78.9436 46.9897,78.4342 46.9897,77.8653L 46.9897,77.3853C 46.9897,76.8197 47.0645,76.3103 47.2139,75.857C 47.3633,75.4036 47.5717,75.0192 47.8389,74.7036C 48.1061,74.3881 48.4272,74.1458 48.8022,73.977C 49.1772,73.8081 49.5886,73.7237 50.0364,73.7237C 50.4986,73.7237 50.9181,73.8081 51.2947,73.977C 51.6714,74.1458 51.9925,74.3881 52.2581,74.7036C 52.5236,75.0192 52.7284,75.4036 52.8722,75.857C 53.0161,76.3103 53.088,76.8197 53.088,77.3853L 53.088,77.8653 Z M 52.093,77.3753C 52.093,76.9242 52.0472,76.525 51.9556,76.1778C 51.8639,75.8306 51.7295,75.5389 51.5522,75.3028C 51.375,75.0667 51.1589,74.8878 50.9039,74.7661C 50.6489,74.6444 50.3597,74.5836 50.0364,74.5836C 49.7275,74.5836 49.4464,74.6444 49.1931,74.7661C 48.9397,74.8878 48.7236,75.0667 48.5447,75.3028C 48.3658,75.5389 48.2278,75.8306 48.1306,76.1778C 48.0333,76.525 47.9847,76.9242 47.9847,77.3753L 47.9847,77.8653C 47.9847,78.3197 48.0342,78.7205 48.1331,79.0678C 48.2319,79.4151 48.3717,79.7075 48.5522,79.9453C 48.7328,80.1831 48.9497,80.3628 49.203,80.4845C 49.4564,80.6061 49.7375,80.667 50.0464,80.667C 50.373,80.667 50.6631,80.6061 50.9164,80.4845C 51.1697,80.3628 51.3842,80.1831 51.5597,79.9453C 51.7353,79.7075 51.868,79.4151 51.958,79.0678C 52.0481,78.7205 52.093,78.3197 52.093,77.8653L 52.093,77.3753 Z "/>
		<path fill="#FFFFFF" fill-opacity="1" stroke-width="0.2" stroke-linejoin="round" d="M 60.4991,80.7667C 60.4207,80.8675 60.3143,80.9779 60.1799,81.098C 60.0455,81.2183 59.8707,81.3287 59.6554,81.4293C 59.4402,81.5299 59.1782,81.6107 58.8692,81.6718C 58.5603,81.7327 58.1922,81.7528 57.765,81.7317C 57.3044,81.709 56.8848,81.6068 56.506,81.4252C 56.1273,81.2436 55.8059,80.9925 55.5419,80.6719C 55.2779,80.3512 55.0787,79.964 54.9442,79.5102C 54.8097,79.0564 54.7563,78.547 54.7842,77.9822L 54.8134,77.3895C 54.8412,76.8236 54.933,76.3219 55.0886,75.8846C 55.2442,75.4473 55.4589,75.0807 55.7326,74.7849C 56.0064,74.4892 56.3363,74.2691 56.7222,74.1245C 57.1081,73.98 57.5452,73.9198 58.0335,73.9437C 58.4674,73.9652 58.8446,74.0421 59.1652,74.1747C 59.4857,74.3074 59.7552,74.4825 59.9736,74.7002C 60.192,74.9179 60.362,75.172 60.4834,75.4628C 60.6048,75.7536 60.6816,76.0684 60.7139,76.407L 59.7151,76.3578C 59.6863,76.1517 59.6356,75.9557 59.563,75.7696C 59.4904,75.5836 59.3864,75.4185 59.2511,75.2745C 59.1158,75.1305 58.9461,75.0133 58.742,74.9232C 58.5378,74.833 58.2904,74.7808 57.9996,74.7664C 57.6456,74.749 57.337,74.7981 57.0738,74.9136C 56.8105,75.0291 56.5898,75.2027 56.4115,75.4342C 56.2332,75.6656 56.095,75.9491 55.9967,76.2848C 55.8983,76.6203 55.8387,77.0017 55.8176,77.429L 55.788,78.0316C 55.7664,78.4688 55.7993,78.8617 55.8867,79.2104C 55.9741,79.559 56.1066,79.8575 56.284,80.106C 56.4614,80.3545 56.6797,80.5477 56.9388,80.6856C 57.1978,80.8235 57.4883,80.9004 57.8102,80.9163C 58.0809,80.9296 58.3118,80.9226 58.5028,80.8953C 58.6938,80.868 58.8556,80.8307 58.9881,80.7832C 59.1206,80.7357 59.2284,80.6822 59.3114,80.6222C 59.3944,80.5624 59.4634,80.506 59.5183,80.453L 59.6021,78.7518L 57.8492,78.6654L 57.8893,77.8531L 60.636,77.9884L 60.4991,80.7667 Z "/>
		<path fill="#FFFFFF" fill-opacity="1" stroke-width="0.2" stroke-linejoin="round" d="M 67.864,81.3139C 67.7834,81.4129 67.6746,81.5209 67.5376,81.6381C 67.4005,81.7553 67.2233,81.8618 67.0059,81.9577C 66.7885,82.0535 66.5247,82.1285 66.2145,82.1826C 65.9043,82.2367 65.5358,82.2484 65.1091,82.2179C 64.6492,82.1851 64.2319,82.0736 63.8573,81.8836C 63.4827,81.6936 63.167,81.4354 62.9102,81.109C 62.6534,80.7826 62.4628,80.3911 62.3384,79.9344C 62.214,79.4777 62.172,78.9673 62.2123,78.4032L 62.2547,77.8114C 62.2951,77.2461 62.3979,76.7467 62.5632,76.3129C 62.7285,75.8792 62.9513,75.5174 63.2315,75.2278C 63.5118,74.9381 63.8465,74.7254 64.2355,74.5895C 64.6245,74.4535 65.0629,74.4031 65.5505,74.4379C 65.9838,74.4689 66.3593,74.5543 66.6768,74.694C 66.9943,74.8336 67.2598,75.0147 67.4734,75.2372C 67.6869,75.4597 67.8512,75.7176 67.9661,76.011C 68.081,76.3045 68.1508,76.6208 68.1755,76.96L 67.1781,76.8887C 67.1539,76.682 67.1075,76.4849 67.0391,76.2973C 66.9706,76.1097 66.8704,75.9424 66.7383,75.7953C 66.6062,75.6483 66.4392,75.5275 66.2371,75.4328C 66.035,75.3382 65.7887,75.2804 65.4984,75.2597C 65.1449,75.2344 64.8352,75.2765 64.5695,75.3861C 64.3037,75.4959 64.0792,75.6644 63.8958,75.8919C 63.7125,76.1194 63.5679,76.3998 63.4622,76.7331C 63.3565,77.0664 63.2884,77.4464 63.2578,77.8731L 63.2148,78.4749C 63.1835,78.9115 63.2077,79.3051 63.2874,79.6556C 63.367,80.006 63.4928,80.3075 63.6646,80.5598C 63.8365,80.8122 64.0504,81.0102 64.3064,81.1538C 64.5623,81.2974 64.851,81.3807 65.1724,81.4037C 65.4428,81.4231 65.6738,81.4212 65.8654,81.3982C 66.057,81.3751 66.2195,81.3414 66.353,81.2969C 66.4865,81.2525 66.5955,81.2012 66.6798,81.1432C 66.7642,81.0851 66.8344,81.0303 66.8905,80.9786L 67.012,79.2796L 65.2615,79.1544L 65.3195,78.3431L 68.0625,78.5393L 67.864,81.3139 Z "/>
		<path fill="#FFFFFF" fill-opacity="1" stroke-width="0.2" stroke-linejoin="round" d="M 74.0356,81.1277L 70.8787,80.7595L 69.9408,82.6436L 68.9177,82.5242L 72.6717,75.3273L 73.5408,75.4286L 75.5445,83.297L 74.5247,83.1781L 74.0356,81.1277 Z M 71.2752,79.9785L 73.8362,80.2772L 72.964,76.6048L 71.2752,79.9785 Z "/>
		<path fill="#FFFFFF" fill-opacity="1" stroke-width="0.2" stroke-linejoin="round" d="M 83.1395,76.8924L 82.3515,81.9666C 82.2859,82.3892 82.155,82.747 81.9588,83.0398C 81.7627,83.3327 81.5238,83.5643 81.242,83.7347C 80.9603,83.9052 80.6467,84.017 80.3011,84.0702C 79.9555,84.1233 79.601,84.1217 79.2376,84.0653C 78.8566,84.0061 78.5095,83.8988 78.1963,83.7433C 77.8831,83.5879 77.622,83.3868 77.4129,83.1402C 77.2039,82.8935 77.0544,82.6015 76.9645,82.2642C 76.8746,81.9271 76.8625,81.547 76.9282,81.1244L 77.7162,76.0502L 78.6928,76.2018L 77.9048,81.276C 77.8595,81.5681 77.8622,81.8277 77.9129,82.0548C 77.9636,82.282 78.0534,82.4786 78.1822,82.6448C 78.311,82.8109 78.4758,82.9448 78.6765,83.0462C 78.8772,83.1477 79.106,83.2183 79.3629,83.2582C 79.6242,83.2989 79.8664,83.3013 80.0895,83.2657C 80.3127,83.2301 80.5108,83.1526 80.6839,83.0333C 80.857,82.914 81.0014,82.7537 81.117,82.5524C 81.2326,82.3511 81.3131,82.1044 81.3584,81.8123L 82.1464,76.7381L 83.1395,76.8924 Z "/>
	</g>
</svg>
