<?xml version="1.0" encoding="utf-8"?>
<!DOCTYPE svg PUBLIC "-//W3C//DTD SVG 1.1//EN" "http://www.w3.org/Graphics/SVG/1.1/DTD/svg11.dtd">
<svg xmlns="http://www.w3.org/2000/svg" xmlns:xlink="http://www.w3.org/1999/xlink" version="1.1" baseProfile="full" width="239.326" height="243.326" viewBox="0 0 239.33 243.33" enable-background="new 0 0 239.33 243.33" xml:space="preserve">
	<path fill="none" stroke-width="25" stroke-linejoin="round" stroke="#FFFFFF" stroke-opacity="1" d="M 27.9205,51.7607L 28.6281,78.4136L 31.0871,101.511L 33.3371,118.511L 36.2538,129.427L 46.2538,157.427L 55.2538,174.761L 66.7538,192.261L 77.0871,203.927L 88.4204,213.927L 97.7538,220.927L 109.754,227.594L 116.087,230.594L 125.754,226.261L 133.754,221.594L 145.087,213.261L 157.42,202.261L 168.42,189.927L 176.42,175.594L 180.754,169.261L 187.087,154.594L 193.087,139.261L 196.754,125.594L 198.754,116.594L 200.42,107.927L 202.42,97.5941L 203.087,86.2608L 204.087,76.5941L 204.754,63.9274L 204.754,54.5941L 204.754,52.2608L 186.42,45.5941L 162.754,39.2608L 151.087,36.9274L 140.754,35.2608L 130.087,33.5941L 118.087,32.9274L 112.42,32.2608L 95.0871,33.9274L 60.8371,41.2608L 27.9205,51.7607 Z "/>
	<path fill="none" stroke-width="15" stroke-linejoin="round" stroke="#FFC800" stroke-opacity="1" d="M 27.6703,51.5785L 28.3779,78.2315L 30.8369,101.329L 33.0869,118.329L 36.0036,129.245L 46.0036,157.245L 55.0036,174.579L 66.5036,192.079L 76.8369,203.745L 88.1702,213.745L 97.5036,220.745L 109.504,227.412L 115.837,230.412L 125.504,226.079L 133.504,221.412L 144.837,213.079L 157.17,202.079L 168.17,189.745L 176.17,175.412L 180.504,169.079L 186.837,154.412L 192.837,139.079L 196.504,125.412L 198.504,116.412L 200.17,107.745L 202.17,97.412L 202.837,86.0786L 203.837,76.412L 204.504,63.7453L 204.504,54.412L 204.504,52.0786L 186.17,45.412L 162.504,39.0786L 150.837,36.7453L 140.504,35.0786L 129.837,33.412L 117.837,32.7453L 112.17,32.0786L 94.8369,33.7453L 60.5869,41.0786L 27.6703,51.5785 Z "/>
	<path fill="none" stroke-width="10" stroke-linejoin="round" stroke="#FFFFFF" stroke-opacity="1" d="M 99.2167,223.988L 117.292,230.988L 161.528,199.488L 176.749,165.988L 189.628,148.172L 191.019,139.488L 194.73,125.36L 185.505,116.614L 177.203,113.116L 171.668,104.371L 165.556,96.1719L 163.48,88.9569L 159.675,82.3979L 156.562,76.8224L 154.14,74.5269L 156.562,71.9032L 158.637,66.328L 157.599,59.4409L 158.291,54.5215L 158.983,45.9947L 159.329,40.4195L 158.983,30.5807L 158.291,25.0055L 156.908,19.4303L 155.178,13.8551L 153.448,10.9035L 150.681,8.27982L 144.8,8.9357L 142.032,11.8874L 137.535,17.4626L 134.767,23.6938L 130.27,30.5807L 128.54,34.1884L 125.773,37.4678L 123.351,37.4678L 120.584,37.14L 117.816,31.5646L 114.703,24.3496L 111.589,18.4464L 110.206,15.1669L 110.206,8.60782L 110.206,5.98428L 107.784,5.00003L 103.633,16.4785L 100.865,25.3335L 98.7896,32.8765L 98.0977,37.14L 99.1355,42.3872L 97.0599,45.0108L 92.5627,46.3227L 86.6817,49.9302L 81.8385,52.8817L 78.0332,55.8334L 77.3413,58.7851L 77.6872,61.7365L 74.9197,63.0484L 66.2712,63.7043L 57.2767,64.3603L 52.7795,65.3441L 47.9364,67.3119L 42.4013,69.9355L 40.3257,73.215L 40.6716,76.1665L 43.7851,77.8063L 43.0932,82.7257L 45.1688,85.0214C 45.1688,85.0214 45.5148,85.6772 47.2445,87.317C 48.9742,88.9569 51.0498,90.5967 51.0498,90.5967L 54.8552,90.9245L 60.7362,91.2525L 64.5415,91.9084L 67.655,93.8761L 74.5738,94.2041L 72.8441,96.8278L 71.1144,100.435L 68.6928,103.059L 64.8874,105.027L 61.4281,106.338L 58.6605,105.683L 55.547,105.027L 52.7795,107.978L 50.7039,111.258L 51.0498,115.193L 52.7795,117.161L 55.547,117.161L 58.6605,116.505L 58.6605,119.129L 60.7362,120.769L 64.5415,122.408L 70.0766,122.408L 75.2656,122.408L 78.7251,121.097L 84.2601,119.129L 87.0276,118.801L 87.3736,122.736L 88.4114,125.688L 89.7952,129.295L 92.5627,132.903L 93.9464,140.118L 93.2545,144.381L 93.6005,146.677L 95.3302,157.5L 93.9464,169.306L 95.3302,179.8L 96.7139,190.951L 98.7896,196.854L 98.7896,206.693L 96.9446,218.936L 99.2167,223.988 Z "/>
	<path fill="#55555A" fill-opacity="1" stroke-width="0.2" stroke-linejoin="round" d="M 99.0144,223.994L 117.089,230.994L 161.326,199.494L 176.547,165.994L 189.425,148.178L 190.817,139.494L 194.528,125.366L 185.303,116.62L 177,113.122L 171.465,104.376L 165.354,96.1778L 163.278,88.9626L 159.473,82.4035L 156.359,76.8283L 153.938,74.5326L 156.359,71.9091L 158.435,66.3336L 157.397,59.4467L 158.089,54.5274L 158.781,46.0005L 159.127,40.4253L 158.781,30.5866L 158.089,25.0114L 156.705,19.4362L 154.976,13.8609L 153.246,10.9093L 150.478,8.28568L 144.597,8.94156L 141.83,11.8932L 137.333,17.4684L 134.565,23.6996L 130.068,30.5866L 128.338,34.1942L 125.571,37.4737L 123.149,37.4737L 120.381,37.1457L 117.614,31.5705L 114.501,24.3555L 111.387,18.4523L 110.003,15.1728L 110.003,8.61368L 110.003,5.9899L 107.582,5.00589L 103.43,16.4844L 100.663,25.3394L 98.5872,32.8824L 97.8954,37.1457L 98.9332,42.3931L 96.8576,45.0166L 92.3603,46.3285L 86.4793,49.9361L 81.6362,52.8876L 77.8308,55.8393L 77.1389,58.7907L 77.4849,61.7423L 74.7174,63.0542L 66.0689,63.7101L 57.0744,64.3661L 52.5772,65.35L 47.734,67.3175L 42.199,69.9413L 40.1233,73.2209L 40.4693,76.1724L 43.5827,77.8122L 42.8909,82.7315L 44.9665,85.0273C 44.9665,85.0273 45.3125,85.683 47.0421,87.3229C 48.7718,88.9626 50.8475,90.6024 50.8475,90.6024L 54.6528,90.9303L 60.5338,91.2583L 64.3392,91.9142L 67.4526,93.882L 74.3714,94.21L 72.6417,96.8335L 70.912,100.441L 68.4904,103.065L 64.6851,105.032L 61.2257,106.344L 58.4582,105.688L 55.3447,105.032L 52.5772,107.984L 50.5015,111.264L 50.8475,115.199L 52.5772,117.167L 55.3447,117.167L 58.4582,116.511L 58.4582,119.135L 60.5338,120.774L 64.3392,122.414L 69.8742,122.414L 75.0633,122.414L 78.5227,121.102L 84.0578,119.135L 86.8253,118.807L 87.1712,122.742L 88.209,125.694L 89.5928,129.301L 92.3603,132.909L 93.7441,140.124L 93.0522,144.387L 93.3981,146.683L 95.1279,157.505L 93.7441,169.312L 95.1279,179.806L 96.5116,190.957L 98.5872,196.86L 98.5872,206.699L 96.7422,218.942L 99.0144,223.994 Z "/>
	<path fill="none" stroke-width="25" stroke-linejoin="round" stroke="#FFFFFF" stroke-opacity="1" d="M 66.0157,192.493L 76.3491,204.16L 87.6824,214.16L 97.0157,221.16L 109.016,227.826L 115.349,230.826L 125.016,226.493L 133.016,221.826L 144.349,213.493L 156.682,202.493L 167.682,190.16L 175.682,175.826L 180.016,169.493L 186.349,154.826L 192.349,139.493L 196.016,125.826L 198.016,116.826"/>
	<path fill="none" stroke-width="15" stroke-linejoin="round" stroke="#FFC800" stroke-opacity="1" d="M 66.5014,192.117L 76.8347,203.784L 88.1681,213.784L 97.5014,220.784L 109.501,227.451L 115.835,230.451L 125.501,226.117L 133.501,221.451L 144.835,213.117L 157.168,202.117L 168.168,189.784L 176.168,175.451L 180.501,169.117L 186.835,154.451L 192.835,139.117L 196.501,125.451L 198.501,116.451"/>
	<path fill="#058AE7" fill-opacity="1" stroke-width="3" stroke-linejoin="round" stroke="#FFFFFF" stroke-opacity="1" d="M 48.1527,209.383L 44.0959,175.132L 1.5,182.42L 17.727,198.452L 9.61351,219.586L 48.1527,209.383 Z "/>
	<path fill="#058AE7" fill-opacity="1" stroke-width="3" stroke-linejoin="round" stroke="#FFFFFF" stroke-opacity="1" d="M 228.857,220.984L 220.579,200.21L 237.826,185.371L 195.052,174.984L 188.153,210.597L 228.857,220.984 Z "/>
	<path fill="#FFFFFF" fill-opacity="1" stroke-width="5" stroke-linejoin="round" stroke="#FFFFFF" stroke-opacity="1" d="M 28.0001,168.358L 38.1915,203.424L 48.5551,201.694L 62.1188,199.429L 76.1589,197.466L 90.4744,195.653L 99.6133,194.988L 107.091,194.655L 114.9,194.655L 123.707,194.821L 133.843,195.32L 147.8,196.319L 163.935,198.201L 177.543,200.314L 189.067,202.758L 200.366,204.756L 211,168.801L 199.884,165.745L 186.858,162.163L 178.042,160.032L 168.396,158.434L 157.272,156.87L 143.871,155.485L 130.025,154.93L 116.9,154.404L 110.638,154.153L 96.9547,154.373L 86.8189,154.872L 75.0213,156.204L 64.2208,158.035L 55.0288,159.999L 44.4475,162.862L 34.3546,165.969L 28.4433,167.914L 28.0001,168.358 Z "/>
	<path fill="#0096FF" fill-opacity="1" stroke-width="0.2" stroke-linejoin="round" d="M 27.8262,168.188L 38.0175,203.254L 48.3811,201.524L 61.9448,199.259L 75.9849,197.297L 90.3004,195.484L 99.4393,194.818L 106.917,194.485L 114.726,194.485L 123.533,194.652L 133.669,195.151L 147.626,196.15L 163.761,198.031L 177.369,200.145L 188.893,202.589L 200.192,204.586L 210.826,168.632L 199.71,165.575L 186.684,161.993L 177.868,159.863L 168.223,158.264L 157.098,156.7L 143.697,155.316L 129.851,154.761L 116.726,154.235L 110.464,153.984L 96.7807,154.203L 86.6449,154.703L 74.8473,156.034L 64.0468,157.865L 54.8548,159.83L 44.2735,162.693L 34.1806,165.799L 28.2692,167.744"/>
	<g>
		<path fill="#FFFFFF" fill-opacity="1" stroke-width="0.2" stroke-linejoin="round" d="M 53.2879,189.081L 52.9057,186.791C 53.2124,187.004 53.5666,187.182 53.9684,187.327C 54.3702,187.471 54.7862,187.58 55.2166,187.652C 55.6469,187.725 56.0738,187.766 56.4974,187.775C 56.9209,187.784 57.3065,187.76 57.6542,187.702C 58.8551,187.501 59.7135,187.124 60.2293,186.57C 60.7452,186.017 60.9319,185.313 60.7894,184.46C 60.7153,184.016 60.5515,183.646 60.2978,183.348C 60.0441,183.051 59.7202,182.796 59.326,182.583C 58.9318,182.37 58.4752,182.178 57.9563,182.007C 57.4374,181.837 56.8789,181.661 56.2808,181.479C 55.6499,181.283 55.0574,181.078 54.5033,180.863C 53.9492,180.649 53.4553,180.393 53.0217,180.096C 52.588,179.798 52.2264,179.439 51.937,179.018C 51.6475,178.598 51.4516,178.081 51.349,177.466C 51.2235,176.714 51.2826,176.032 51.5264,175.42C 51.7701,174.808 52.1357,174.276 52.623,173.825C 53.1103,173.373 53.6894,173.001 54.3603,172.708C 55.0311,172.414 55.7303,172.207 56.4577,172.086C 58.1148,171.809 59.3595,171.826 60.1919,172.135L 60.5568,174.321C 59.4412,173.696 58.1116,173.513 56.5679,173.771C 56.1413,173.842 55.7224,173.959 55.311,174.121C 54.8996,174.283 54.5448,174.496 54.2465,174.759C 53.9481,175.022 53.7214,175.333 53.5661,175.694C 53.4108,176.054 53.3723,176.468 53.4505,176.937C 53.5209,177.359 53.6613,177.71 53.8716,177.99C 54.0819,178.271 54.3635,178.511 54.7164,178.712C 55.0693,178.913 55.4887,179.095 55.9748,179.259C 56.4608,179.422 57.0185,179.597 57.6478,179.784C 58.2955,179.975 58.9139,180.186 59.5027,180.419C 60.0915,180.651 60.6208,180.93 61.0907,181.254C 61.5606,181.579 61.9534,181.959 62.2694,182.394C 62.5854,182.829 62.7946,183.354 62.8971,183.967C 63.033,184.781 62.9858,185.497 62.7556,186.114C 62.5254,186.732 62.1648,187.263 61.6738,187.708C 61.1828,188.152 60.5909,188.512 59.8982,188.789C 59.2056,189.066 58.461,189.27 57.6645,189.403C 57.3982,189.448 57.0664,189.48 56.6692,189.499C 56.272,189.519 55.8626,189.518 55.4411,189.499C 55.0197,189.479 54.6169,189.435 54.2328,189.366C 53.8487,189.297 53.5337,189.202 53.2879,189.081 Z "/>
		<path fill="#FFFFFF" fill-opacity="1" stroke-width="0.2" stroke-linejoin="round" d="M 77.0163,169.419L 73.2141,186.914L 71.0823,187.212L 62.7549,171.413L 64.9275,171.109L 71.3396,183.663C 71.5452,184.068 71.7253,184.544 71.88,185.09L 71.9245,185.084C 71.9217,184.612 71.9782,184.096 72.0941,183.534L 74.9142,169.713L 77.0163,169.419 Z "/>
		<path fill="#FFFFFF" fill-opacity="1" stroke-width="0.2" stroke-linejoin="round" d="M 88.7319,185.173C 86.3758,185.471 84.3908,184.935 82.7771,183.564C 81.1633,182.194 80.1992,180.267 79.8848,177.785C 79.5468,175.116 79.9995,172.896 81.243,171.124C 82.4865,169.353 84.3521,168.309 86.8397,167.994C 89.1339,167.704 91.0799,168.241 92.6779,169.606C 94.2758,170.971 95.2325,172.899 95.5479,175.389C 95.8906,178.095 95.4429,180.326 94.205,182.081C 92.9671,183.837 91.1427,184.867 88.7319,185.173 Z M 86.9094,169.679C 85.1956,169.896 83.8842,170.709 82.9751,172.116C 82.0661,173.524 81.7427,175.264 82.005,177.335C 82.267,179.403 82.9993,181.002 84.202,182.131C 85.4046,183.26 86.8455,183.718 88.5246,183.506C 90.3153,183.279 91.6503,182.499 92.5297,181.165C 93.4091,179.831 93.7119,178.083 93.4379,175.921C 93.1571,173.703 92.439,172.053 91.2838,170.97C 90.1285,169.886 88.6704,169.456 86.9094,169.679 Z M 88.8616,166.529C 88.5367,166.57 88.2427,166.492 87.9798,166.296C 87.7168,166.1 87.5633,165.829 87.5194,165.482C 87.4766,165.144 87.5545,164.848 87.7528,164.594C 87.9512,164.34 88.2115,164.192 88.534,164.151C 88.8762,164.108 89.1791,164.186 89.4425,164.386C 89.7059,164.585 89.8585,164.85 89.9003,165.18C 89.9424,165.512 89.8648,165.809 89.6674,166.071C 89.47,166.333 89.2014,166.486 88.8616,166.529 Z M 84.3563,167.099C 84.0215,167.142 83.7212,167.059 83.4554,166.851C 83.1897,166.642 83.0363,166.377 82.9955,166.055C 82.9528,165.717 83.0306,165.421 83.229,165.167C 83.4273,164.913 83.6901,164.765 84.0175,164.723C 84.3449,164.682 84.6428,164.76 84.9112,164.96C 85.1796,165.159 85.3347,165.423 85.3765,165.753C 85.4186,166.085 85.3384,166.383 85.1361,166.645C 84.9337,166.908 84.6738,167.059 84.3563,167.099 Z "/>
		<path fill="#FFFFFF" fill-opacity="1" stroke-width="0.2" stroke-linejoin="round" d="M 114.488,184.059C 112.113,184.059 110.212,183.277 108.783,181.715C 107.354,180.152 106.64,178.12 106.64,175.618C 106.64,172.927 107.368,170.782 108.824,169.181C 110.28,167.579 112.262,166.779 114.77,166.779C 117.082,166.779 118.945,167.556 120.359,169.111C 121.773,170.666 122.48,172.699 122.48,175.209C 122.48,177.936 121.755,180.093 120.307,181.679C 118.858,183.266 116.918,184.059 114.488,184.059 Z M 114.627,168.459C 112.9,168.459 111.497,169.1 110.418,170.382C 109.339,171.665 108.8,173.35 108.8,175.438C 108.8,177.522 109.325,179.201 110.377,180.472C 111.428,181.743 112.8,182.379 114.492,182.379C 116.297,182.379 117.72,181.772 118.76,180.56C 119.8,179.348 120.32,177.651 120.32,175.471C 120.32,173.236 119.815,171.509 118.805,170.289C 117.795,169.069 116.402,168.459 114.627,168.459 Z "/>
		<path fill="#FFFFFF" fill-opacity="1" stroke-width="0.2" stroke-linejoin="round" d="M 138.879,183.628C 137.147,184.436 135.25,184.79 133.188,184.688C 130.79,184.57 128.889,183.706 127.484,182.096C 126.079,180.486 125.439,178.415 125.564,175.883C 125.691,173.299 126.624,171.219 128.363,169.642C 130.101,168.066 132.241,167.34 134.783,167.466C 136.626,167.557 138.159,167.911 139.383,168.529L 139.282,170.571C 137.961,169.705 136.37,169.226 134.509,169.134C 132.627,169.042 131.051,169.618 129.784,170.863C 128.516,172.109 127.831,173.769 127.729,175.844C 127.623,177.984 128.097,179.692 129.149,180.969C 130.201,182.246 131.68,182.932 133.585,183.026C 134.891,183.09 136.035,182.885 137.017,182.41L 137.25,177.679L 133.654,177.502L 133.737,175.824L 139.25,176.096L 138.879,183.628 Z "/>
		<path fill="#FFFFFF" fill-opacity="1" stroke-width="0.2" stroke-linejoin="round" d="M 159.116,186.751L 149.581,185.639L 149.776,183.97L 153.59,184.415L 155.087,171.579L 151.045,172.278L 151.257,170.461L 157.276,169.381L 155.497,184.637L 159.311,185.082L 159.116,186.751 Z "/>
		<path fill="#FFFFFF" fill-opacity="1" stroke-width="0.2" stroke-linejoin="round" d="M 172.117,188.535L 162.156,186.988L 162.403,185.398L 168.016,181.268C 169.447,180.218 170.491,179.32 171.15,178.575C 171.808,177.829 172.21,176.987 172.356,176.048C 172.502,175.11 172.343,174.341 171.879,173.743C 171.415,173.145 170.683,172.768 169.683,172.612C 168.215,172.385 166.71,172.798 165.168,173.854L 165.481,171.835C 166.93,171.01 168.51,170.73 170.222,170.996C 171.697,171.225 172.795,171.806 173.515,172.737C 174.236,173.669 174.492,174.809 174.282,176.158C 174.116,177.23 173.658,178.231 172.911,179.161C 172.163,180.091 170.907,181.194 169.142,182.471L 164.697,185.682L 164.69,185.727L 172.368,186.919L 172.117,188.535 Z "/>
		<path fill="#FFFFFF" fill-opacity="1" stroke-width="0.2" stroke-linejoin="round" d="M 176.409,188.424L 176.832,186.428C 177.786,187.448 178.841,188.081 179.998,188.327C 181.157,188.572 182.161,188.441 183.009,187.932C 183.856,187.423 184.396,186.626 184.626,185.54C 184.855,184.459 184.67,183.538 184.069,182.778C 183.469,182.019 182.49,181.495 181.133,181.207C 180.673,181.109 179.801,180.973 178.517,180.798L 180.239,172.676L 188.222,174.369L 187.873,176.012L 181.769,174.718L 180.763,179.461C 181.266,179.535 181.728,179.616 182.149,179.705C 183.878,180.072 185.121,180.801 185.879,181.892C 186.636,182.982 186.851,184.302 186.523,185.85C 186.183,187.452 185.395,188.633 184.159,189.393C 182.923,190.153 181.409,190.343 179.617,189.963C 178.105,189.642 177.036,189.129 176.409,188.424 Z "/>
	</g>
</svg>
